<?xml version="1.0" encoding="UTF-8" standalone="no"?>
<!-- Created with Inkscape (http://www.inkscape.org/) -->

<svg
   width="522mm"
   height="522mm"
   viewBox="0 0 521.99998 522"
   version="1.1"
   id="svg5"
   xml:space="preserve"
   inkscape:version="1.2.2 (732a01da63, 2022-12-09)"
   sodipodi:docname="lexicongreve-logo2.svg"
   inkscape:export-filename="lexicongreve-logo2-16x16.png"
   inkscape:export-xdpi="12.456705"
   inkscape:export-ydpi="12.456705"
   xmlns:inkscape="http://www.inkscape.org/namespaces/inkscape"
   xmlns:sodipodi="http://sodipodi.sourceforge.net/DTD/sodipodi-0.dtd"
   xmlns="http://www.w3.org/2000/svg"
   xmlns:svg="http://www.w3.org/2000/svg"><sodipodi:namedview
     id="namedview7"
     pagecolor="#505050"
     bordercolor="#eeeeee"
     borderopacity="1"
     inkscape:showpageshadow="0"
     inkscape:pageopacity="0"
     inkscape:pagecheckerboard="0"
     inkscape:deskcolor="#505050"
     inkscape:document-units="mm"
     showgrid="false"
     inkscape:zoom="0.25638077"
     inkscape:cx="565.56504"
     inkscape:cy="575.31616"
     inkscape:window-width="1920"
     inkscape:window-height="1001"
     inkscape:window-x="-9"
     inkscape:window-y="-9"
     inkscape:window-maximized="1"
     inkscape:current-layer="svg5" /><defs
     id="defs2"><rect
       x="-879.81274"
       y="449.55948"
       width="987.37604"
       height="775.00745"
       id="rect2522" /></defs><g
     inkscape:groupmode="layer"
     id="layer2"
     inkscape:label="Layer 3"
     transform="translate(110.55131,-70.465724)" /><g
     inkscape:label="Layer 2"
     inkscape:groupmode="layer"
     id="layer1"
     transform="translate(110.55131,-70.465724)"><path
       id="text726"
       style="font-style:normal;font-variant:normal;font-weight:normal;font-stretch:normal;font-size:158.75px;font-family:Cookie;-inkscape-font-specification:Cookie;fill:#ffffff;stroke:#ffffff;stroke-width:41.5303;stroke-linejoin:round;stroke-dasharray:none"
       d="m 108.10125,177.5455 c -28.400303,0 -51.390773,9.97432 -68.971933,29.92228 -17.24303,19.60985 -28.23128,47.67195 -32.9646806,84.18683 -17.5811544,1.69051 -26.3710754,5.74809 -26.3710754,12.17201 0,2.02858 3.041904,3.04257 9.127691,3.04257 6.4238784,0 11.49536643,-0.16875 15.2144694,-0.50684 -7.100085,53.41996 -13.8620844,90.27211 -20.2859584,110.55814 -16.904942,-4.3953 -30.089856,-6.59198 -39.556623,-6.59198 -21.976432,0 -32.96468,9.63523 -32.96468,28.90703 0,8.79059 3.380983,16.39788 10.142979,22.82178 6.761963,6.42394 14.537938,9.63621 23.328498,9.63621 21.638342,0 38.880798,-6.76201 51.7285504,-20.28605 3.71907203,1.6905 10.14365,4.73407 19.2722986,9.12939 9.466801,4.39531 15.720981,7.26851 18.763871,8.62093 3.04289,1.35237 10.31271,4.39594 21.80804,9.12937 11.49535,4.73341 24.34286,7.09877 38.54298,7.09877 13.862073,0 26.709573,-5.57767 38.543023,-16.73498 11.83345,-11.15731 17.75022,-24.68139 17.75022,-40.57213 0,-5.07152 -2.02796,-7.60727 -6.08516,-7.60727 -2.02856,0 -5.24087,4.90278 -9.63615,14.70773 -4.39527,9.80493 -12.67907,14.70607 -24.85061,14.70607 -11.833463,0 -23.159163,-1.35142 -33.978333,-4.05622 -10.81917,-3.04291 -31.78168,-9.80492 -62.886798,-20.28608 13.185868,-25.01946 23.160138,-66.6057 29.922108,-124.75903 27.72413,-6.08581 51.89729,-16.06015 72.521303,-29.92229 10.48108,-7.43821 18.76487,-16.56729 24.85065,-27.38653 6.42388,-11.15733 9.63615,-23.32832 9.63615,-36.51425 0,-19.60984 -14.20052,-29.41546 -42.60083,-29.41546 z m 195.25235,0 c -41.92428,0 -78.27002,18.08777 -109.03701,54.26455 -30.42893,35.83872 -45.64342,83.17298 -45.64342,142.00254 0,23.32893 7.2698,45.64467 21.80804,66.94502 7.10009,10.48114 16.7353,19.10241 28.90687,25.86444 12.17154,6.76197 25.52682,10.143 40.06508,10.143 51.72916,0 93.14641,-22.82184 124.25149,-68.46547 17.24304,-25.35758 25.86427,-46.32026 25.86427,-62.88718 0,-2.70483 -1.1827,-4.05623 -3.54937,-4.05623 -2.0286,0 -8.45318,9.63522 -19.27233,28.90701 -4.39528,8.4525 -7.77629,14.36929 -10.14299,17.7503 -28.06222,40.57211 -57.30686,60.85822 -87.73578,60.85822 -25.69552,0 -45.64406,-9.63521 -59.84423,-28.90696 -14.20012,-19.60989 -21.29958,-41.92562 -21.29958,-66.94506 0,-36.17679 10.31173,-71.33841 30.93573,-105.4866 20.62404,-34.14816 43.61451,-51.22362 68.97194,-51.22362 25.69552,0 38.54299,12.00392 38.54299,36.00905 0,7.77633 -3.38102,15.55233 -10.14299,23.32866 -6.42388,7.77633 -9.63617,14.70709 -9.63617,20.79292 0,5.40961 4.90278,8.11409 14.70767,8.11409 10.14297,0 18.76419,-6.08554 25.86427,-18.25714 7.10009,-12.17163 10.65145,-25.35826 10.65145,-39.55848 0,-14.20025 -5.07151,-25.86342 -15.21447,-34.99217 C 332.26208,182.2796 319.24425,177.5455 303.3536,177.5455 Z m -202.3528,12.67878 c 12.50967,0 18.76551,9.1291 18.76551,27.38651 0,18.25746 -7.10106,33.13294 -21.301243,44.62836 -13.86205,11.15735 -31.61229,19.10371 -53.25063,23.83714 9.80489,-63.90107 28.40037,-95.85201 55.786363,-95.85201 z m -1.115983,3.51308 c -3.88848,0.0778 -8.08946,0.84431 -11.23419,2.27163 -17.087,7.75535 -31.18916,37.44373 -39.14225,82.4072 l -0.65541,3.71285 6.07358,-1.78462 c 24.54716,-7.20932 45.00015,-20.15415 53.754143,-34.02143 10.17227,-16.114 10.47844,-43.78045 0.5613,-50.72675 -1.8935,-1.32624 -5.46866,-1.93686 -9.357173,-1.85888 z M -64.329382,428.07883 c 4.733368,0 16.905965,4.22628 36.515709,12.67878 -6.761996,7.77633 -13.523992,11.6635 -20.285953,11.6635 -6.761997,0 -12.341306,-1.6905 -16.736585,-5.07152 -4.057192,-3.38097 -6.085116,-7.43689 -6.085116,-12.1703 0,-4.73343 2.196666,-7.10046 6.591945,-7.10046 z m -0.0052,2.47799 c -0.257648,-0.006 -0.490919,0.004 -0.699977,0.0255 -2.495045,0.26067 -3.34811,1.45522 -3.343029,4.67529 0.0029,1.91391 0.248893,3.19924 0.906349,4.71988 0.661452,1.52998 1.428102,2.6458 2.799879,4.07933 2.877316,3.00693 7.469577,5.06743 12.682012,5.69061 0.641101,0.0766 2.346335,0.12142 3.788779,0.099 2.262026,-0.0351 2.812814,-0.0913 4.006649,-0.40944 2.666151,-0.71045 5.163846,-1.99207 7.919255,-4.0628 1.740567,-1.30812 4.240563,-3.62154 4.072718,-3.76899 -0.06447,-0.0565 -1.952724,-0.86214 -4.196543,-1.78955 -14.738399,-6.09181 -24.071314,-9.18508 -27.936092,-9.25982 z" /></g><path
     id="path295"
     style="font-size:244.339px;font-family:Cookie;-inkscape-font-specification:Cookie;fill:#000000;stroke-width:4.79196;stroke-linejoin:round"
     d="m 218.653,107.08034 c -28.40025,0 -51.39085,9.9743 -68.97197,29.92211 -17.24302,19.6097 -28.23167,47.67204 -32.96506,84.18667 -17.581124,1.69051 -26.371821,5.74792 -26.371821,12.17178 0,2.0286 3.04304,3.04294 9.128837,3.04294 6.423874,0 11.495634,-0.16916 15.214714,-0.50734 -7.10006,53.41957 -13.86205,90.27261 -20.285931,110.55852 -16.90494,-4.39528 -30.09045,-6.59322 -39.55721,-6.59322 -21.97639,0 -32.96506,9.63581 -32.96506,28.90744 0,8.79055 3.38048,16.39768 10.14244,22.82153 6.76198,6.42388 14.53833,9.63617 23.32888,9.63617 21.63832,0 38.88124,-6.76199 51.728991,-20.28593 3.71908,1.69051 10.14369,4.73356 19.27233,9.12883 9.46678,4.39528 15.72106,7.2691 18.76394,8.62149 3.04288,1.3524 10.3126,4.39439 21.80794,9.12778 11.49536,4.73336 24.34346,7.10055 38.54361,7.10055 13.86203,0 26.70908,-5.57843 38.54253,-16.73566 11.83345,-11.15725 17.75032,-24.68125 17.75032,-40.57186 0,-5.07151 -2.0287,-7.6079 -6.08589,-7.6079 -2.02858,0 -5.23981,4.90253 -9.63508,14.70738 -4.3953,9.80485 -12.67936,14.70738 -24.85091,14.70738 -11.83345,0 -23.15948,-1.35175 -33.97863,-4.05654 -10.81915,-3.04288 -31.78104,-9.80489 -62.8861,-20.28595 13.18585,-25.01927 23.15907,-66.60562 29.92104,-124.75856 27.72408,-6.08578 51.89824,-16.06008 72.52224,-29.92209 10.48106,-7.43818 18.76512,-16.56734 24.85091,-27.38651 6.42385,-11.15725 9.63508,-23.32842 9.63508,-36.51424 0,-19.60971 -14.19987,-29.41477 -42.60014,-29.41477 z m 195.25255,0 c -41.92421,0 -78.27062,18.08911 -109.03758,54.26565 -30.42888,35.83845 -45.6431,83.17136 -45.6431,142.00049 0,23.32879 7.26971,45.64348 21.80794,66.94369 7.10007,10.48106 16.73588,19.10251 28.90745,25.86448 12.17152,6.76197 25.52628,10.1435 40.06452,10.1435 51.72908,0 93.14618,-22.82133 124.25124,-68.46462 17.243,-25.35739 25.86448,-46.32034 25.86448,-62.88716 0,-2.70479 -1.18359,-4.05654 -3.55028,-4.05654 -2.02858,0 -8.45211,9.63582 -19.27126,28.90742 -4.39529,8.45248 -7.77683,14.36935 -10.1435,17.75035 -28.06218,40.57181 -57.30705,60.8578 -87.7359,60.8578 -25.69549,0 -45.64407,-9.63581 -59.84422,-28.90744 -14.20014,-19.6097 -21.29954,-41.92439 -21.29954,-66.94369 0,-36.17652 10.31171,-71.33934 30.93571,-105.4873 20.624,-34.14794 43.61459,-51.22164 68.97196,-51.22164 25.69551,0 38.54361,12.00192 38.54361,36.00692 0,7.77627 -3.38153,15.55262 -10.1435,23.32889 -6.42388,7.77625 -9.63509,14.70751 -9.63509,20.79327 0,5.40957 4.90253,8.11415 14.70738,8.11415 10.14294,0 18.76442,-6.08503 25.86448,-18.25658 7.10008,-12.17154 10.64978,-25.35813 10.64978,-39.55828 0,-14.20015 -5.07177,-25.86467 -15.21474,-34.99332 -10.14294,-9.46674 -23.15921,-14.20004 -39.04984,-14.20004 z m -202.35311,12.67911 c 12.50963,0 18.76499,9.12809 18.76499,27.38542 0,18.25733 -7.10046,33.13416 -21.3006,44.6295 -13.86203,11.15724 -31.61161,19.10282 -53.24991,23.8362 9.80485,-63.90062 28.39954,-95.85112 55.78552,-95.85112 z M 46.223069,357.61214 c 4.73337,0 16.90454,4.22557 36.51426,12.67803 -6.76197,7.77627 -13.52398,11.66444 -20.28595,11.66444 -6.76197,0 -12.34037,-1.69024 -16.73565,-5.07122 -4.05718,-3.38099 -6.08589,-7.43838 -6.08589,-12.17177 0,-4.73337 2.19793,-7.09948 6.59323,-7.09948 z" /><g
     inkscape:groupmode="layer"
     id="layer4"
     inkscape:label="Layer 1"
     transform="translate(110.55131,-70.465724)" /></svg>
